<?xml version="1.0" encoding="utf-8" standalone="no"?>
<!DOCTYPE svg PUBLIC "-//W3C//DTD SVG 1.1//EN"
  "http://www.w3.org/Graphics/SVG/1.1/DTD/svg11.dtd">
<!-- Created with matplotlib (https://matplotlib.org/) -->
<svg height="501.440469pt" version="1.1" viewBox="0 0 774.001094 501.440469" width="774.001094pt" xmlns="http://www.w3.org/2000/svg" xmlns:xlink="http://www.w3.org/1999/xlink">
 <metadata>
  <rdf:RDF xmlns:cc="http://creativecommons.org/ns#" xmlns:dc="http://purl.org/dc/elements/1.1/" xmlns:rdf="http://www.w3.org/1999/02/22-rdf-syntax-ns#">
   <cc:Work>
    <dc:type rdf:resource="http://purl.org/dc/dcmitype/StillImage"/>
    <dc:date>2021-02-08T21:16:03.151388</dc:date>
    <dc:format>image/svg+xml</dc:format>
    <dc:creator>
     <cc:Agent>
      <dc:title>Matplotlib v3.3.2, https://matplotlib.org/</dc:title>
     </cc:Agent>
    </dc:creator>
   </cc:Work>
  </rdf:RDF>
 </metadata>
 <defs>
  <style type="text/css">*{stroke-linecap:butt;stroke-linejoin:round;}</style>
 </defs>
 <g id="figure_1">
  <g id="patch_1">
   <path d="M 0 501.440469 
L 774.001094 501.440469 
L 774.001094 0 
L 0 0 
z
" style="fill:#ffffff;"/>
  </g>
  <g id="axes_1">
   <g id="patch_2">
    <path d="M 320.401094 442.08 
L 766.801094 442.08 
L 766.801094 7.2 
L 320.401094 7.2 
z
" style="fill:#ffffff;"/>
   </g>
   <g id="matplotlib.axis_1">
    <g id="xtick_1">
     <g id="line2d_1">
      <defs>
       <path d="M 0 0 
L 0 9 
" id="m925eb24edd" style="stroke:#262626;stroke-width:1.875;"/>
      </defs>
      <g>
       <use style="fill:#262626;stroke:#262626;stroke-width:1.875;" x="340.692003" xlink:href="#m925eb24edd" y="442.08"/>
      </g>
     </g>
     <g id="text_1">
      <!-- −100 -->
      <g style="fill:#262626;" transform="translate(322.110167 470.037344)scale(0.165 -0.165)">
       <defs>
        <path d="M 4.9375 29.6875 
L 4.9375 36.8125 
L 53.515625 36.8125 
L 53.515625 29.6875 
z
" id="LiberationSans-8722"/>
        <path d="M 7.625 0 
L 7.625 7.46875 
L 25.140625 7.46875 
L 25.140625 60.40625 
L 9.625 49.3125 
L 9.625 57.625 
L 25.875 68.796875 
L 33.984375 68.796875 
L 33.984375 7.46875 
L 50.734375 7.46875 
L 50.734375 0 
z
" id="LiberationSans-49"/>
        <path d="M 51.703125 34.421875 
Q 51.703125 24.515625 49.828125 17.75 
Q 47.953125 10.984375 44.703125 6.8125 
Q 41.453125 2.640625 37.0625 0.828125 
Q 32.671875 -0.984375 27.6875 -0.984375 
Q 22.65625 -0.984375 18.3125 0.828125 
Q 13.96875 2.640625 10.765625 6.78125 
Q 7.5625 10.9375 5.734375 17.703125 
Q 3.90625 24.46875 3.90625 34.421875 
Q 3.90625 44.828125 5.734375 51.640625 
Q 7.5625 58.453125 10.78125 62.5 
Q 14.015625 66.546875 18.40625 68.1875 
Q 22.796875 69.828125 27.984375 69.828125 
Q 32.90625 69.828125 37.21875 68.1875 
Q 41.546875 66.546875 44.765625 62.5 
Q 48 58.453125 49.84375 51.640625 
Q 51.703125 44.828125 51.703125 34.421875 
z
M 42.78125 34.421875 
Q 42.78125 42.625 41.796875 48.0625 
Q 40.828125 53.515625 38.921875 56.765625 
Q 37.015625 60.015625 34.25 61.359375 
Q 31.5 62.703125 27.984375 62.703125 
Q 24.265625 62.703125 21.4375 61.328125 
Q 18.609375 59.96875 16.671875 56.71875 
Q 14.75 53.46875 13.765625 48.015625 
Q 12.796875 42.578125 12.796875 34.421875 
Q 12.796875 26.515625 13.796875 21.09375 
Q 14.796875 15.671875 16.71875 12.375 
Q 18.65625 9.078125 21.4375 7.640625 
Q 24.21875 6.203125 27.78125 6.203125 
Q 31.25 6.203125 34.03125 7.640625 
Q 36.8125 9.078125 38.734375 12.375 
Q 40.671875 15.671875 41.71875 21.09375 
Q 42.78125 26.515625 42.78125 34.421875 
z
" id="LiberationSans-48"/>
       </defs>
       <use xlink:href="#LiberationSans-8722"/>
       <use x="58.398438" xlink:href="#LiberationSans-49"/>
       <use x="114.013672" xlink:href="#LiberationSans-48"/>
       <use x="169.628906" xlink:href="#LiberationSans-48"/>
      </g>
     </g>
    </g>
    <g id="xtick_2">
     <g id="line2d_2">
      <g>
       <use style="fill:#262626;stroke:#262626;stroke-width:1.875;" x="391.489757" xlink:href="#m925eb24edd" y="442.08"/>
      </g>
     </g>
     <g id="text_2">
      <!-- −75 -->
      <g style="fill:#262626;" transform="translate(377.495695 470.037344)scale(0.165 -0.165)">
       <defs>
        <path d="M 50.59375 61.671875 
Q 45.40625 53.765625 41.0625 46.453125 
Q 36.71875 39.15625 33.59375 31.75 
Q 30.46875 24.359375 28.734375 16.578125 
Q 27 8.796875 27 0 
L 17.828125 0 
Q 17.828125 8.25 19.78125 16.1875 
Q 21.734375 24.125 25.046875 31.765625 
Q 28.375 39.40625 32.765625 46.78125 
Q 37.15625 54.15625 42.09375 61.328125 
L 5.125 61.328125 
L 5.125 68.796875 
L 50.59375 68.796875 
z
" id="LiberationSans-55"/>
        <path d="M 51.421875 22.40625 
Q 51.421875 17.234375 49.859375 12.9375 
Q 48.296875 8.640625 45.21875 5.53125 
Q 42.140625 2.4375 37.578125 0.71875 
Q 33.015625 -0.984375 27 -0.984375 
Q 21.578125 -0.984375 17.546875 0.28125 
Q 13.53125 1.5625 10.734375 3.78125 
Q 7.953125 6 6.3125 8.984375 
Q 4.6875 11.96875 4 15.375 
L 12.890625 16.40625 
Q 13.421875 14.453125 14.390625 12.625 
Q 15.375 10.796875 17.0625 9.34375 
Q 18.75 7.90625 21.21875 7.046875 
Q 23.6875 6.203125 27.203125 6.203125 
Q 30.609375 6.203125 33.390625 7.25 
Q 36.1875 8.296875 38.15625 10.34375 
Q 40.140625 12.40625 41.203125 15.375 
Q 42.28125 18.359375 42.28125 22.21875 
Q 42.28125 25.390625 41.25 28.046875 
Q 40.234375 30.71875 38.328125 32.640625 
Q 36.421875 34.578125 33.65625 35.640625 
Q 30.90625 36.71875 27.390625 36.71875 
Q 25.203125 36.71875 23.34375 36.328125 
Q 21.484375 35.9375 19.890625 35.25 
Q 18.3125 34.578125 17.015625 33.671875 
Q 15.71875 32.765625 14.59375 31.78125 
L 6 31.78125 
L 8.296875 68.796875 
L 47.40625 68.796875 
L 47.40625 61.328125 
L 16.3125 61.328125 
L 14.984375 39.5 
Q 17.328125 41.3125 20.84375 42.59375 
Q 24.359375 43.890625 29.203125 43.890625 
Q 34.328125 43.890625 38.421875 42.328125 
Q 42.53125 40.765625 45.40625 37.90625 
Q 48.296875 35.0625 49.859375 31.109375 
Q 51.421875 27.15625 51.421875 22.40625 
z
" id="LiberationSans-53"/>
       </defs>
       <use xlink:href="#LiberationSans-8722"/>
       <use x="58.398438" xlink:href="#LiberationSans-55"/>
       <use x="114.013672" xlink:href="#LiberationSans-53"/>
      </g>
     </g>
    </g>
    <g id="xtick_3">
     <g id="line2d_3">
      <g>
       <use style="fill:#262626;stroke:#262626;stroke-width:1.875;" x="442.287512" xlink:href="#m925eb24edd" y="442.08"/>
      </g>
     </g>
     <g id="text_3">
      <!-- −50 -->
      <g style="fill:#262626;" transform="translate(428.293449 470.037344)scale(0.165 -0.165)">
       <use xlink:href="#LiberationSans-8722"/>
       <use x="58.398438" xlink:href="#LiberationSans-53"/>
       <use x="114.013672" xlink:href="#LiberationSans-48"/>
      </g>
     </g>
    </g>
    <g id="xtick_4">
     <g id="line2d_4">
      <g>
       <use style="fill:#262626;stroke:#262626;stroke-width:1.875;" x="493.085266" xlink:href="#m925eb24edd" y="442.08"/>
      </g>
     </g>
     <g id="text_4">
      <!-- −25 -->
      <g style="fill:#262626;" transform="translate(479.091204 470.037344)scale(0.165 -0.165)">
       <defs>
        <path d="M 5.03125 0 
L 5.03125 6.203125 
Q 7.515625 11.921875 11.109375 16.28125 
Q 14.703125 20.65625 18.65625 24.1875 
Q 22.609375 27.734375 26.484375 30.765625 
Q 30.375 33.796875 33.5 36.8125 
Q 36.625 39.84375 38.546875 43.15625 
Q 40.484375 46.484375 40.484375 50.6875 
Q 40.484375 53.609375 39.59375 55.828125 
Q 38.71875 58.0625 37.0625 59.5625 
Q 35.40625 61.078125 33.078125 61.828125 
Q 30.765625 62.59375 27.9375 62.59375 
Q 25.296875 62.59375 22.96875 61.859375 
Q 20.65625 61.140625 18.84375 59.671875 
Q 17.046875 58.203125 15.890625 56.03125 
Q 14.75 53.859375 14.40625 50.984375 
L 5.421875 51.8125 
Q 5.859375 55.515625 7.46875 58.78125 
Q 9.078125 62.0625 11.90625 64.53125 
Q 14.75 67 18.71875 68.40625 
Q 22.703125 69.828125 27.9375 69.828125 
Q 33.0625 69.828125 37.0625 68.609375 
Q 41.0625 67.390625 43.8125 64.984375 
Q 46.578125 62.59375 48.046875 59.078125 
Q 49.515625 55.5625 49.515625 50.984375 
Q 49.515625 47.515625 48.265625 44.390625 
Q 47.015625 41.265625 44.9375 38.421875 
Q 42.875 35.59375 40.140625 32.953125 
Q 37.40625 30.328125 34.421875 27.8125 
Q 31.453125 25.296875 28.421875 22.828125 
Q 25.390625 20.359375 22.71875 17.859375 
Q 20.0625 15.375 17.96875 12.8125 
Q 15.875 10.25 14.703125 7.46875 
L 50.59375 7.46875 
L 50.59375 0 
z
" id="LiberationSans-50"/>
       </defs>
       <use xlink:href="#LiberationSans-8722"/>
       <use x="58.398438" xlink:href="#LiberationSans-50"/>
       <use x="114.013672" xlink:href="#LiberationSans-53"/>
      </g>
     </g>
    </g>
    <g id="xtick_5">
     <g id="line2d_5">
      <g>
       <use style="fill:#262626;stroke:#262626;stroke-width:1.875;" x="543.883021" xlink:href="#m925eb24edd" y="442.08"/>
      </g>
     </g>
     <g id="text_5">
      <!-- 0 -->
      <g style="fill:#262626;" transform="translate(539.295248 470.037344)scale(0.165 -0.165)">
       <use xlink:href="#LiberationSans-48"/>
      </g>
     </g>
    </g>
    <g id="xtick_6">
     <g id="line2d_6">
      <g>
       <use style="fill:#262626;stroke:#262626;stroke-width:1.875;" x="594.680776" xlink:href="#m925eb24edd" y="442.08"/>
      </g>
     </g>
     <g id="text_6">
      <!-- 25 -->
      <g style="fill:#262626;" transform="translate(585.505229 470.037344)scale(0.165 -0.165)">
       <use xlink:href="#LiberationSans-50"/>
       <use x="55.615234" xlink:href="#LiberationSans-53"/>
      </g>
     </g>
    </g>
    <g id="xtick_7">
     <g id="line2d_7">
      <g>
       <use style="fill:#262626;stroke:#262626;stroke-width:1.875;" x="645.47853" xlink:href="#m925eb24edd" y="442.08"/>
      </g>
     </g>
     <g id="text_7">
      <!-- 50 -->
      <g style="fill:#262626;" transform="translate(636.302983 470.037344)scale(0.165 -0.165)">
       <use xlink:href="#LiberationSans-53"/>
       <use x="55.615234" xlink:href="#LiberationSans-48"/>
      </g>
     </g>
    </g>
    <g id="xtick_8">
     <g id="line2d_8">
      <g>
       <use style="fill:#262626;stroke:#262626;stroke-width:1.875;" x="696.276285" xlink:href="#m925eb24edd" y="442.08"/>
      </g>
     </g>
     <g id="text_8">
      <!-- 75 -->
      <g style="fill:#262626;" transform="translate(687.100738 470.037344)scale(0.165 -0.165)">
       <use xlink:href="#LiberationSans-55"/>
       <use x="55.615234" xlink:href="#LiberationSans-53"/>
      </g>
     </g>
    </g>
    <g id="xtick_9">
     <g id="line2d_9">
      <g>
       <use style="fill:#262626;stroke:#262626;stroke-width:1.875;" x="747.074039" xlink:href="#m925eb24edd" y="442.08"/>
      </g>
     </g>
     <g id="text_9">
      <!-- 100 -->
      <g style="fill:#262626;" transform="translate(733.310719 470.037344)scale(0.165 -0.165)">
       <use xlink:href="#LiberationSans-49"/>
       <use x="55.615234" xlink:href="#LiberationSans-48"/>
       <use x="111.230469" xlink:href="#LiberationSans-48"/>
      </g>
     </g>
    </g>
    <g id="text_10">
     <!-- Relative Feature Importance -->
     <g style="fill:#262626;" transform="translate(430.054844 490.505469)scale(0.18 -0.18)">
      <defs>
       <path d="M 56.84375 0 
L 38.96875 28.5625 
L 17.53125 28.5625 
L 17.53125 0 
L 8.203125 0 
L 8.203125 68.796875 
L 40.578125 68.796875 
Q 46.4375 68.796875 50.953125 67.453125 
Q 55.46875 66.109375 58.546875 63.5625 
Q 61.625 61.03125 63.234375 57.375 
Q 64.84375 53.71875 64.84375 49.125 
Q 64.84375 45.84375 63.890625 42.671875 
Q 62.9375 39.5 60.890625 36.859375 
Q 58.84375 34.234375 55.65625 32.328125 
Q 52.484375 30.421875 48.046875 29.640625 
L 67.578125 0 
z
M 55.46875 49.03125 
Q 55.46875 52.15625 54.390625 54.4375 
Q 53.328125 56.734375 51.265625 58.265625 
Q 49.21875 59.8125 46.28125 60.5625 
Q 43.359375 61.328125 39.65625 61.328125 
L 17.53125 61.328125 
L 17.53125 35.9375 
L 40.046875 35.9375 
Q 44.046875 35.9375 46.96875 36.9375 
Q 49.90625 37.9375 51.78125 39.6875 
Q 53.65625 41.453125 54.5625 43.84375 
Q 55.46875 46.234375 55.46875 49.03125 
z
" id="LiberationSans-82"/>
       <path d="M 13.484375 24.5625 
Q 13.484375 20.40625 14.328125 16.90625 
Q 15.1875 13.421875 16.96875 10.90625 
Q 18.75 8.40625 21.53125 7 
Q 24.3125 5.609375 28.21875 5.609375 
Q 33.9375 5.609375 37.375 7.90625 
Q 40.828125 10.203125 42.046875 13.71875 
L 49.75 11.53125 
Q 48.921875 9.328125 47.4375 7.109375 
Q 45.953125 4.890625 43.453125 3.09375 
Q 40.96875 1.3125 37.234375 0.15625 
Q 33.5 -0.984375 28.21875 -0.984375 
Q 16.5 -0.984375 10.375 6 
Q 4.25 12.984375 4.25 26.765625 
Q 4.25 34.1875 6.09375 39.328125 
Q 7.953125 44.484375 11.171875 47.703125 
Q 14.40625 50.921875 18.703125 52.359375 
Q 23 53.8125 27.875 53.8125 
Q 34.515625 53.8125 38.984375 51.65625 
Q 43.453125 49.515625 46.15625 45.71875 
Q 48.875 41.9375 50.015625 36.8125 
Q 51.171875 31.6875 51.171875 25.734375 
L 51.171875 24.5625 
z
M 42.09375 31.296875 
Q 41.359375 39.65625 37.84375 43.484375 
Q 34.328125 47.3125 27.734375 47.3125 
Q 25.53125 47.3125 23.109375 46.609375 
Q 20.703125 45.90625 18.65625 44.09375 
Q 16.609375 42.28125 15.1875 39.171875 
Q 13.765625 36.078125 13.578125 31.296875 
z
" id="LiberationSans-101"/>
       <path d="M 6.734375 0 
L 6.734375 72.46875 
L 15.53125 72.46875 
L 15.53125 0 
z
" id="LiberationSans-108"/>
       <path d="M 20.21875 -0.984375 
Q 12.25 -0.984375 8.25 3.21875 
Q 4.25 7.421875 4.25 14.75 
Q 4.25 19.96875 6.21875 23.3125 
Q 8.203125 26.65625 11.390625 28.5625 
Q 14.59375 30.46875 18.6875 31.203125 
Q 22.796875 31.9375 27.046875 32.03125 
L 38.921875 32.234375 
L 38.921875 35.109375 
Q 38.921875 38.375 38.234375 40.671875 
Q 37.546875 42.96875 36.125 44.375 
Q 34.71875 45.796875 32.59375 46.453125 
Q 30.46875 47.125 27.59375 47.125 
Q 25.046875 47.125 23 46.75 
Q 20.953125 46.390625 19.4375 45.4375 
Q 17.921875 44.484375 16.984375 42.84375 
Q 16.0625 41.21875 15.765625 38.71875 
L 6.59375 39.546875 
Q 7.078125 42.671875 8.4375 45.28125 
Q 9.8125 47.90625 12.328125 49.796875 
Q 14.84375 51.703125 18.625 52.75 
Q 22.40625 53.8125 27.78125 53.8125 
Q 37.75 53.8125 42.765625 49.234375 
Q 47.796875 44.671875 47.796875 36.03125 
L 47.796875 13.28125 
Q 47.796875 9.375 48.828125 7.390625 
Q 49.859375 5.421875 52.734375 5.421875 
Q 53.46875 5.421875 54.203125 5.515625 
Q 54.9375 5.609375 55.609375 5.765625 
L 55.609375 0.296875 
Q 53.953125 -0.09375 52.3125 -0.28125 
Q 50.6875 -0.484375 48.828125 -0.484375 
Q 46.34375 -0.484375 44.5625 0.171875 
Q 42.78125 0.828125 41.65625 2.171875 
Q 40.53125 3.515625 39.9375 5.484375 
Q 39.359375 7.46875 39.203125 10.109375 
L 38.921875 10.109375 
Q 37.5 7.5625 35.8125 5.515625 
Q 34.125 3.46875 31.875 2.03125 
Q 29.640625 0.59375 26.78125 -0.1875 
Q 23.921875 -0.984375 20.21875 -0.984375 
z
M 22.21875 5.609375 
Q 26.421875 5.609375 29.5625 7.140625 
Q 32.71875 8.6875 34.78125 11.078125 
Q 36.859375 13.484375 37.890625 16.3125 
Q 38.921875 19.140625 38.921875 21.734375 
L 38.921875 26.078125 
L 29.296875 25.875 
Q 26.078125 25.828125 23.171875 25.40625 
Q 20.265625 25 18.0625 23.78125 
Q 15.875 22.5625 14.578125 20.359375 
Q 13.28125 18.171875 13.28125 14.59375 
Q 13.28125 10.296875 15.59375 7.953125 
Q 17.921875 5.609375 22.21875 5.609375 
z
" id="LiberationSans-97"/>
       <path d="M 27.046875 0.390625 
Q 25.046875 -0.140625 22.96875 -0.453125 
Q 20.90625 -0.78125 18.171875 -0.78125 
Q 7.625 -0.78125 7.625 11.1875 
L 7.625 46.4375 
L 1.515625 46.4375 
L 1.515625 52.828125 
L 7.953125 52.828125 
L 10.546875 64.65625 
L 16.40625 64.65625 
L 16.40625 52.828125 
L 26.171875 52.828125 
L 26.171875 46.4375 
L 16.40625 46.4375 
L 16.40625 13.09375 
Q 16.40625 9.28125 17.640625 7.734375 
Q 18.890625 6.203125 21.96875 6.203125 
Q 23.25 6.203125 24.4375 6.390625 
Q 25.640625 6.59375 27.046875 6.890625 
z
" id="LiberationSans-116"/>
       <path d="M 6.6875 64.0625 
L 6.6875 72.46875 
L 15.484375 72.46875 
L 15.484375 64.0625 
z
M 6.6875 0 
L 6.6875 52.828125 
L 15.484375 52.828125 
L 15.484375 0 
z
" id="LiberationSans-105"/>
       <path d="M 29.9375 0 
L 19.53125 0 
L 0.34375 52.828125 
L 9.71875 52.828125 
L 21.34375 18.453125 
Q 21.6875 17.390625 22.140625 15.84375 
Q 22.609375 14.3125 23.09375 12.640625 
Q 23.578125 10.984375 24 9.4375 
Q 24.421875 7.90625 24.703125 6.890625 
Q 25 7.90625 25.453125 9.4375 
Q 25.921875 10.984375 26.40625 12.59375 
Q 26.90625 14.203125 27.421875 15.734375 
Q 27.9375 17.28125 28.328125 18.359375 
L 40.328125 52.828125 
L 49.65625 52.828125 
z
" id="LiberationSans-118"/>
       <path id="LiberationSans-32"/>
       <path d="M 17.53125 61.1875 
L 17.53125 35.59375 
L 55.90625 35.59375 
L 55.90625 27.875 
L 17.53125 27.875 
L 17.53125 0 
L 8.203125 0 
L 8.203125 68.796875 
L 57.078125 68.796875 
L 57.078125 61.1875 
z
" id="LiberationSans-70"/>
       <path d="M 15.328125 52.828125 
L 15.328125 19.34375 
Q 15.328125 15.484375 15.890625 12.890625 
Q 16.453125 10.296875 17.71875 8.703125 
Q 19 7.125 21.0625 6.46875 
Q 23.140625 5.8125 26.21875 5.8125 
Q 29.34375 5.8125 31.859375 6.90625 
Q 34.375 8.015625 36.15625 10.078125 
Q 37.9375 12.15625 38.90625 15.203125 
Q 39.890625 18.265625 39.890625 22.21875 
L 39.890625 52.828125 
L 48.6875 52.828125 
L 48.6875 11.28125 
Q 48.6875 9.625 48.703125 7.78125 
Q 48.734375 5.953125 48.78125 4.3125 
Q 48.828125 2.6875 48.875 1.515625 
Q 48.921875 0.34375 48.96875 0 
L 40.671875 0 
Q 40.625 0.25 40.578125 1.3125 
Q 40.53125 2.390625 40.453125 3.78125 
Q 40.375 5.171875 40.328125 6.609375 
Q 40.28125 8.0625 40.28125 9.03125 
L 40.140625 9.03125 
Q 38.875 6.734375 37.359375 4.875 
Q 35.84375 3.03125 33.84375 1.734375 
Q 31.84375 0.4375 29.25 -0.265625 
Q 26.65625 -0.984375 23.25 -0.984375 
Q 18.84375 -0.984375 15.671875 0.09375 
Q 12.5 1.171875 10.453125 3.421875 
Q 8.40625 5.671875 7.453125 9.1875 
Q 6.5 12.703125 6.5 17.625 
L 6.5 52.828125 
z
" id="LiberationSans-117"/>
       <path d="M 6.9375 0 
L 6.9375 40.53125 
Q 6.9375 42.1875 6.90625 43.921875 
Q 6.890625 45.65625 6.828125 47.265625 
Q 6.78125 48.875 6.734375 50.28125 
Q 6.6875 51.703125 6.640625 52.828125 
L 14.9375 52.828125 
Q 14.984375 51.703125 15.0625 50.265625 
Q 15.140625 48.828125 15.203125 47.3125 
Q 15.28125 45.796875 15.296875 44.40625 
Q 15.328125 43.015625 15.328125 42.046875 
L 15.53125 42.046875 
Q 16.453125 45.0625 17.5 47.28125 
Q 18.5625 49.515625 19.96875 50.953125 
Q 21.390625 52.390625 23.34375 53.09375 
Q 25.296875 53.8125 28.078125 53.8125 
Q 29.15625 53.8125 30.125 53.640625 
Q 31.109375 53.46875 31.640625 53.328125 
L 31.640625 45.265625 
Q 30.765625 45.515625 29.59375 45.625 
Q 28.421875 45.75 26.953125 45.75 
Q 23.921875 45.75 21.796875 44.375 
Q 19.671875 43.015625 18.328125 40.59375 
Q 17 38.1875 16.359375 34.84375 
Q 15.71875 31.5 15.71875 27.546875 
L 15.71875 0 
z
" id="LiberationSans-114"/>
       <path d="M 9.234375 0 
L 9.234375 68.796875 
L 18.5625 68.796875 
L 18.5625 0 
z
" id="LiberationSans-73"/>
       <path d="M 37.5 0 
L 37.5 33.5 
Q 37.5 37.359375 37.015625 39.9375 
Q 36.53125 42.53125 35.375 44.109375 
Q 34.234375 45.703125 32.375 46.359375 
Q 30.515625 47.015625 27.828125 47.015625 
Q 25.046875 47.015625 22.796875 45.921875 
Q 20.5625 44.828125 18.96875 42.75 
Q 17.390625 40.671875 16.53125 37.625 
Q 15.671875 34.578125 15.671875 30.609375 
L 15.671875 0 
L 6.9375 0 
L 6.9375 41.546875 
Q 6.9375 43.21875 6.90625 45.046875 
Q 6.890625 46.875 6.828125 48.5 
Q 6.78125 50.140625 6.734375 51.3125 
Q 6.6875 52.484375 6.640625 52.828125 
L 14.9375 52.828125 
Q 14.984375 52.59375 15.03125 51.515625 
Q 15.09375 50.4375 15.15625 49.046875 
Q 15.234375 47.65625 15.28125 46.21875 
Q 15.328125 44.78125 15.328125 43.796875 
L 15.484375 43.796875 
Q 16.65625 46.09375 18.015625 47.953125 
Q 19.390625 49.8125 21.21875 51.09375 
Q 23.046875 52.390625 25.40625 53.09375 
Q 27.78125 53.8125 30.90625 53.8125 
Q 36.921875 53.8125 40.40625 51.421875 
Q 43.890625 49.03125 45.265625 43.796875 
L 45.40625 43.796875 
Q 46.578125 46.09375 48.046875 47.953125 
Q 49.515625 49.8125 51.46875 51.09375 
Q 53.421875 52.390625 55.859375 53.09375 
Q 58.296875 53.8125 61.421875 53.8125 
Q 65.4375 53.8125 68.328125 52.734375 
Q 71.234375 51.65625 73.09375 49.40625 
Q 74.953125 47.171875 75.828125 43.625 
Q 76.703125 40.09375 76.703125 35.203125 
L 76.703125 0 
L 68.015625 0 
L 68.015625 33.5 
Q 68.015625 37.359375 67.53125 39.9375 
Q 67.046875 42.53125 65.890625 44.109375 
Q 64.75 45.703125 62.890625 46.359375 
Q 61.03125 47.015625 58.34375 47.015625 
Q 55.5625 47.015625 53.3125 45.96875 
Q 51.078125 44.921875 49.484375 42.875 
Q 47.90625 40.828125 47.046875 37.75 
Q 46.1875 34.671875 46.1875 30.609375 
L 46.1875 0 
z
" id="LiberationSans-109"/>
       <path d="M 51.421875 26.65625 
Q 51.421875 20.65625 50.4375 15.578125 
Q 49.46875 10.5 47.1875 6.828125 
Q 44.921875 3.171875 41.1875 1.09375 
Q 37.453125 -0.984375 31.984375 -0.984375 
Q 26.3125 -0.984375 22.0625 1.171875 
Q 17.828125 3.328125 15.578125 8.203125 
L 15.328125 8.203125 
Q 15.375 8.109375 15.40625 7.328125 
Q 15.4375 6.546875 15.453125 5.375 
Q 15.484375 4.203125 15.5 2.75 
Q 15.53125 1.3125 15.53125 -0.09375 
L 15.53125 -20.75 
L 6.734375 -20.75 
L 6.734375 42.046875 
Q 6.734375 43.953125 6.703125 45.703125 
Q 6.6875 47.46875 6.640625 48.90625 
Q 6.59375 50.34375 6.546875 51.359375 
Q 6.5 52.390625 6.453125 52.828125 
L 14.9375 52.828125 
Q 14.984375 52.6875 15.0625 51.796875 
Q 15.140625 50.921875 15.203125 49.671875 
Q 15.28125 48.4375 15.359375 47.015625 
Q 15.4375 45.609375 15.4375 44.34375 
L 15.625 44.34375 
Q 16.84375 46.875 18.40625 48.65625 
Q 19.96875 50.4375 21.96875 51.578125 
Q 23.96875 52.734375 26.4375 53.25 
Q 28.90625 53.765625 31.984375 53.765625 
Q 37.453125 53.765625 41.1875 51.8125 
Q 44.921875 49.859375 47.1875 46.3125 
Q 49.46875 42.78125 50.4375 37.765625 
Q 51.421875 32.765625 51.421875 26.65625 
z
M 42.1875 26.46875 
Q 42.1875 31.34375 41.59375 35.15625 
Q 41.015625 38.96875 39.578125 41.59375 
Q 38.140625 44.234375 35.734375 45.59375 
Q 33.34375 46.96875 29.734375 46.96875 
Q 26.8125 46.96875 24.21875 46.140625 
Q 21.625 45.3125 19.703125 42.96875 
Q 17.78125 40.625 16.65625 36.5 
Q 15.53125 32.375 15.53125 25.78125 
Q 15.53125 20.171875 16.453125 16.28125 
Q 17.390625 12.40625 19.171875 10.015625 
Q 20.953125 7.625 23.578125 6.5625 
Q 26.21875 5.515625 29.640625 5.515625 
Q 33.296875 5.515625 35.71875 6.921875 
Q 38.140625 8.34375 39.578125 11.03125 
Q 41.015625 13.71875 41.59375 17.59375 
Q 42.1875 21.484375 42.1875 26.46875 
z
" id="LiberationSans-112"/>
       <path d="M 51.421875 26.46875 
Q 51.421875 12.59375 45.3125 5.796875 
Q 39.203125 -0.984375 27.59375 -0.984375 
Q 22.078125 -0.984375 17.71875 0.671875 
Q 13.375 2.34375 10.375 5.765625 
Q 7.375 9.1875 5.78125 14.328125 
Q 4.203125 19.484375 4.203125 26.46875 
Q 4.203125 53.8125 27.875 53.8125 
Q 34.03125 53.8125 38.5 52.09375 
Q 42.96875 50.390625 45.828125 46.96875 
Q 48.6875 43.5625 50.046875 38.421875 
Q 51.421875 33.296875 51.421875 26.46875 
z
M 42.1875 26.46875 
Q 42.1875 32.625 41.234375 36.625 
Q 40.28125 40.625 38.453125 43.015625 
Q 36.625 45.40625 33.984375 46.359375 
Q 31.34375 47.3125 28.03125 47.3125 
Q 24.65625 47.3125 21.9375 46.3125 
Q 19.234375 45.3125 17.328125 42.890625 
Q 15.4375 40.484375 14.421875 36.46875 
Q 13.421875 32.46875 13.421875 26.46875 
Q 13.421875 20.3125 14.5 16.28125 
Q 15.578125 12.25 17.453125 9.859375 
Q 19.34375 7.46875 21.90625 6.484375 
Q 24.46875 5.515625 27.484375 5.515625 
Q 30.859375 5.515625 33.59375 6.46875 
Q 36.328125 7.421875 38.234375 9.8125 
Q 40.140625 12.203125 41.15625 16.25 
Q 42.1875 20.3125 42.1875 26.46875 
z
" id="LiberationSans-111"/>
       <path d="M 40.28125 0 
L 40.28125 33.5 
Q 40.28125 37.359375 39.71875 39.9375 
Q 39.15625 42.53125 37.890625 44.109375 
Q 36.625 45.703125 34.546875 46.359375 
Q 32.46875 47.015625 29.390625 47.015625 
Q 26.265625 47.015625 23.75 45.921875 
Q 21.234375 44.828125 19.453125 42.75 
Q 17.671875 40.671875 16.6875 37.625 
Q 15.71875 34.578125 15.71875 30.609375 
L 15.71875 0 
L 6.9375 0 
L 6.9375 41.546875 
Q 6.9375 43.21875 6.90625 45.046875 
Q 6.890625 46.875 6.828125 48.5 
Q 6.78125 50.140625 6.734375 51.3125 
Q 6.6875 52.484375 6.640625 52.828125 
L 14.9375 52.828125 
Q 14.984375 52.59375 15.03125 51.515625 
Q 15.09375 50.4375 15.15625 49.046875 
Q 15.234375 47.65625 15.28125 46.21875 
Q 15.328125 44.78125 15.328125 43.796875 
L 15.484375 43.796875 
Q 16.75 46.09375 18.265625 47.953125 
Q 19.78125 49.8125 21.78125 51.09375 
Q 23.78125 52.390625 26.359375 53.09375 
Q 28.953125 53.8125 32.375 53.8125 
Q 36.765625 53.8125 39.9375 52.734375 
Q 43.109375 51.65625 45.15625 49.40625 
Q 47.21875 47.171875 48.171875 43.625 
Q 49.125 40.09375 49.125 35.203125 
L 49.125 0 
z
" id="LiberationSans-110"/>
       <path d="M 13.421875 26.65625 
Q 13.421875 22.125 14.078125 18.3125 
Q 14.75 14.5 16.3125 11.734375 
Q 17.875 8.984375 20.4375 7.46875 
Q 23 5.953125 26.765625 5.953125 
Q 31.453125 5.953125 34.59375 8.484375 
Q 37.75 11.03125 38.484375 16.3125 
L 47.359375 15.71875 
Q 46.921875 12.453125 45.453125 9.421875 
Q 44 6.390625 41.484375 4.09375 
Q 38.96875 1.8125 35.34375 0.40625 
Q 31.734375 -0.984375 27 -0.984375 
Q 20.796875 -0.984375 16.453125 1.109375 
Q 12.109375 3.21875 9.390625 6.90625 
Q 6.6875 10.59375 5.46875 15.59375 
Q 4.25 20.609375 4.25 26.46875 
Q 4.25 31.78125 5.125 35.859375 
Q 6 39.9375 7.59375 42.984375 
Q 9.1875 46.046875 11.328125 48.125 
Q 13.484375 50.203125 15.984375 51.4375 
Q 18.5 52.6875 21.28125 53.25 
Q 24.078125 53.8125 26.90625 53.8125 
Q 31.34375 53.8125 34.8125 52.59375 
Q 38.28125 51.375 40.796875 49.25 
Q 43.3125 47.125 44.875 44.234375 
Q 46.4375 41.359375 47.078125 38.03125 
L 38.03125 37.359375 
Q 37.359375 41.75 34.5625 44.328125 
Q 31.78125 46.921875 26.65625 46.921875 
Q 22.90625 46.921875 20.390625 45.671875 
Q 17.875 44.4375 16.3125 41.921875 
Q 14.75 39.40625 14.078125 35.59375 
Q 13.421875 31.78125 13.421875 26.65625 
z
" id="LiberationSans-99"/>
      </defs>
      <use xlink:href="#LiberationSans-82"/>
      <use x="72.216797" xlink:href="#LiberationSans-101"/>
      <use x="127.832031" xlink:href="#LiberationSans-108"/>
      <use x="150.048828" xlink:href="#LiberationSans-97"/>
      <use x="205.664062" xlink:href="#LiberationSans-116"/>
      <use x="233.447266" xlink:href="#LiberationSans-105"/>
      <use x="255.664062" xlink:href="#LiberationSans-118"/>
      <use x="305.664062" xlink:href="#LiberationSans-101"/>
      <use x="361.279297" xlink:href="#LiberationSans-32"/>
      <use x="389.0625" xlink:href="#LiberationSans-70"/>
      <use x="450.146484" xlink:href="#LiberationSans-101"/>
      <use x="505.761719" xlink:href="#LiberationSans-97"/>
      <use x="561.376953" xlink:href="#LiberationSans-116"/>
      <use x="589.160156" xlink:href="#LiberationSans-117"/>
      <use x="644.775391" xlink:href="#LiberationSans-114"/>
      <use x="678.076172" xlink:href="#LiberationSans-101"/>
      <use x="733.691406" xlink:href="#LiberationSans-32"/>
      <use x="761.474609" xlink:href="#LiberationSans-73"/>
      <use x="789.257812" xlink:href="#LiberationSans-109"/>
      <use x="872.558594" xlink:href="#LiberationSans-112"/>
      <use x="928.173828" xlink:href="#LiberationSans-111"/>
      <use x="983.789062" xlink:href="#LiberationSans-114"/>
      <use x="1017.089844" xlink:href="#LiberationSans-116"/>
      <use x="1044.873047" xlink:href="#LiberationSans-97"/>
      <use x="1100.488281" xlink:href="#LiberationSans-110"/>
      <use x="1156.103516" xlink:href="#LiberationSans-99"/>
      <use x="1206.103516" xlink:href="#LiberationSans-101"/>
     </g>
    </g>
   </g>
   <g id="matplotlib.axis_2">
    <g id="ytick_1">
     <g id="line2d_10">
      <defs>
       <path d="M 0 0 
L -9 0 
" id="m638534d071" style="stroke:#262626;stroke-width:1.875;"/>
      </defs>
      <g>
       <use style="fill:#262626;stroke:#262626;stroke-width:1.875;" x="320.401094" xlink:href="#m638534d071" y="411.627715"/>
      </g>
     </g>
     <g id="text_11">
      <!-- hoepa_status_3 -->
      <g style="fill:#262626;" transform="translate(186.977813 417.606387)scale(0.165 -0.165)">
       <defs>
        <path d="M 15.484375 43.796875 
Q 16.9375 46.484375 18.640625 48.359375 
Q 20.359375 50.25 22.40625 51.46875 
Q 24.46875 52.6875 26.90625 53.25 
Q 29.34375 53.8125 32.375 53.8125 
Q 37.453125 53.8125 40.703125 52.4375 
Q 43.953125 51.078125 45.828125 48.609375 
Q 47.703125 46.140625 48.40625 42.71875 
Q 49.125 39.3125 49.125 35.203125 
L 49.125 0 
L 40.28125 0 
L 40.28125 33.5 
Q 40.28125 36.859375 39.859375 39.390625 
Q 39.453125 41.9375 38.28125 43.625 
Q 37.109375 45.3125 34.953125 46.15625 
Q 32.8125 47.015625 29.390625 47.015625 
Q 26.265625 47.015625 23.75 45.890625 
Q 21.234375 44.78125 19.453125 42.71875 
Q 17.671875 40.671875 16.6875 37.734375 
Q 15.71875 34.8125 15.71875 31.15625 
L 15.71875 0 
L 6.9375 0 
L 6.9375 72.46875 
L 15.71875 72.46875 
L 15.71875 53.609375 
Q 15.71875 52 15.671875 50.390625 
Q 15.625 48.78125 15.546875 47.40625 
Q 15.484375 46.046875 15.421875 45.09375 
Q 15.375 44.140625 15.328125 43.796875 
z
" id="LiberationSans-104"/>
        <path d="M -1.515625 -19.875 
L -1.515625 -13.53125 
L 56.734375 -13.53125 
L 56.734375 -19.875 
z
" id="LiberationSans-95"/>
        <path d="M 46.390625 14.59375 
Q 46.390625 10.890625 44.9375 7.984375 
Q 43.5 5.078125 40.765625 3.09375 
Q 38.03125 1.125 34.046875 0.0625 
Q 30.078125 -0.984375 24.953125 -0.984375 
Q 20.359375 -0.984375 16.671875 -0.265625 
Q 12.984375 0.4375 10.203125 2 
Q 7.421875 3.5625 5.53125 6.125 
Q 3.65625 8.6875 2.78125 12.40625 
L 10.546875 13.921875 
Q 11.671875 9.671875 15.1875 7.6875 
Q 18.703125 5.71875 24.953125 5.71875 
Q 27.78125 5.71875 30.140625 6.109375 
Q 32.515625 6.5 34.21875 7.453125 
Q 35.9375 8.40625 36.890625 9.984375 
Q 37.84375 11.578125 37.84375 13.921875 
Q 37.84375 16.3125 36.71875 17.84375 
Q 35.59375 19.390625 33.59375 20.40625 
Q 31.59375 21.4375 28.734375 22.1875 
Q 25.875 22.953125 22.46875 23.875 
Q 19.28125 24.703125 16.15625 25.734375 
Q 13.03125 26.765625 10.515625 28.4375 
Q 8.015625 30.125 6.453125 32.609375 
Q 4.890625 35.109375 4.890625 38.875 
Q 4.890625 46.09375 10.03125 49.875 
Q 15.1875 53.65625 25.046875 53.65625 
Q 33.796875 53.65625 38.9375 50.578125 
Q 44.09375 47.515625 45.453125 40.71875 
L 37.546875 39.75 
Q 37.109375 41.796875 35.9375 43.1875 
Q 34.765625 44.578125 33.109375 45.4375 
Q 31.453125 46.296875 29.375 46.65625 
Q 27.296875 47.015625 25.046875 47.015625 
Q 19.09375 47.015625 16.25 45.203125 
Q 13.421875 43.40625 13.421875 39.75 
Q 13.421875 37.59375 14.46875 36.203125 
Q 15.53125 34.8125 17.40625 33.859375 
Q 19.28125 32.90625 21.921875 32.203125 
Q 24.5625 31.5 27.734375 30.71875 
Q 29.828125 30.171875 32.03125 29.5625 
Q 34.234375 28.953125 36.296875 28.09375 
Q 38.375 27.25 40.203125 26.09375 
Q 42.046875 24.953125 43.40625 23.34375 
Q 44.78125 21.734375 45.578125 19.578125 
Q 46.390625 17.4375 46.390625 14.59375 
z
" id="LiberationSans-115"/>
        <path d="M 51.21875 19 
Q 51.21875 14.265625 49.671875 10.546875 
Q 48.140625 6.84375 45.1875 4.265625 
Q 42.234375 1.703125 37.859375 0.359375 
Q 33.5 -0.984375 27.875 -0.984375 
Q 21.484375 -0.984375 17.109375 0.609375 
Q 12.75 2.203125 9.90625 4.8125 
Q 7.078125 7.421875 5.65625 10.765625 
Q 4.25 14.109375 3.8125 17.671875 
L 12.890625 18.5 
Q 13.28125 15.765625 14.328125 13.515625 
Q 15.375 11.28125 17.1875 9.671875 
Q 19 8.0625 21.625 7.171875 
Q 24.265625 6.296875 27.875 6.296875 
Q 34.515625 6.296875 38.296875 9.5625 
Q 42.09375 12.84375 42.09375 19.28125 
Q 42.09375 23.09375 40.40625 25.40625 
Q 38.71875 27.734375 36.203125 29.03125 
Q 33.6875 30.328125 30.734375 30.765625 
Q 27.78125 31.203125 25.296875 31.203125 
L 20.3125 31.203125 
L 20.3125 38.8125 
L 25.09375 38.8125 
Q 27.59375 38.8125 30.265625 39.328125 
Q 32.953125 39.84375 35.171875 41.1875 
Q 37.40625 42.53125 38.84375 44.828125 
Q 40.28125 47.125 40.28125 50.6875 
Q 40.28125 56.203125 37.03125 59.390625 
Q 33.796875 62.59375 27.390625 62.59375 
Q 21.578125 62.59375 17.984375 59.609375 
Q 14.40625 56.640625 13.8125 51.21875 
L 4.984375 51.90625 
Q 5.515625 56.453125 7.46875 59.8125 
Q 9.421875 63.1875 12.421875 65.40625 
Q 15.4375 67.625 19.28125 68.71875 
Q 23.140625 69.828125 27.484375 69.828125 
Q 33.25 69.828125 37.390625 68.375 
Q 41.546875 66.9375 44.1875 64.46875 
Q 46.828125 62.015625 48.0625 58.6875 
Q 49.3125 55.375 49.3125 51.609375 
Q 49.3125 48.578125 48.484375 45.9375 
Q 47.65625 43.3125 45.890625 41.203125 
Q 44.140625 39.109375 41.421875 37.59375 
Q 38.71875 36.078125 34.90625 35.296875 
L 34.90625 35.109375 
Q 39.0625 34.671875 42.140625 33.21875 
Q 45.21875 31.78125 47.21875 29.625 
Q 49.21875 27.484375 50.21875 24.75 
Q 51.21875 22.015625 51.21875 19 
z
" id="LiberationSans-51"/>
       </defs>
       <use xlink:href="#LiberationSans-104"/>
       <use x="55.615234" xlink:href="#LiberationSans-111"/>
       <use x="111.230469" xlink:href="#LiberationSans-101"/>
       <use x="166.845703" xlink:href="#LiberationSans-112"/>
       <use x="222.460938" xlink:href="#LiberationSans-97"/>
       <use x="278.076172" xlink:href="#LiberationSans-95"/>
       <use x="333.691406" xlink:href="#LiberationSans-115"/>
       <use x="383.691406" xlink:href="#LiberationSans-116"/>
       <use x="411.474609" xlink:href="#LiberationSans-97"/>
       <use x="467.089844" xlink:href="#LiberationSans-116"/>
       <use x="494.873047" xlink:href="#LiberationSans-117"/>
       <use x="550.488281" xlink:href="#LiberationSans-115"/>
       <use x="600.488281" xlink:href="#LiberationSans-95"/>
       <use x="656.103516" xlink:href="#LiberationSans-51"/>
      </g>
     </g>
    </g>
    <g id="ytick_2">
     <g id="line2d_11">
      <g>
       <use style="fill:#262626;stroke:#262626;stroke-width:1.875;" x="320.401094" xlink:href="#m638534d071" y="384.915184"/>
      </g>
     </g>
     <g id="text_12">
      <!-- occupancy_type_1 -->
      <g style="fill:#262626;" transform="translate(166.811719 390.893856)scale(0.165 -0.165)">
       <defs>
        <path d="M 29.5 0 
Q 27.640625 -4.78125 25.703125 -8.609375 
Q 23.78125 -12.453125 21.390625 -15.15625 
Q 19 -17.875 16.0625 -19.3125 
Q 13.140625 -20.75 9.328125 -20.75 
Q 7.671875 -20.75 6.25 -20.65625 
Q 4.828125 -20.5625 3.265625 -20.21875 
L 3.265625 -13.625 
Q 4.203125 -13.765625 5.375 -13.84375 
Q 6.546875 -13.921875 7.375 -13.921875 
Q 11.234375 -13.921875 14.546875 -11.03125 
Q 17.875 -8.15625 20.359375 -1.859375 
L 21.1875 0.25 
L 0.25 52.828125 
L 9.625 52.828125 
L 20.75 23.640625 
Q 21.234375 22.3125 21.984375 20.109375 
Q 22.75 17.921875 23.5 15.71875 
Q 24.265625 13.53125 24.84375 11.765625 
Q 25.4375 10.015625 25.53125 9.578125 
Q 25.6875 10.109375 26.25 11.6875 
Q 26.8125 13.28125 27.515625 15.234375 
Q 28.21875 17.1875 28.953125 19.1875 
Q 29.6875 21.1875 30.171875 22.65625 
L 40.53125 52.828125 
L 49.8125 52.828125 
z
" id="LiberationSans-121"/>
       </defs>
       <use xlink:href="#LiberationSans-111"/>
       <use x="55.615234" xlink:href="#LiberationSans-99"/>
       <use x="105.615234" xlink:href="#LiberationSans-99"/>
       <use x="155.615234" xlink:href="#LiberationSans-117"/>
       <use x="211.230469" xlink:href="#LiberationSans-112"/>
       <use x="266.845703" xlink:href="#LiberationSans-97"/>
       <use x="322.460938" xlink:href="#LiberationSans-110"/>
       <use x="378.076172" xlink:href="#LiberationSans-99"/>
       <use x="428.076172" xlink:href="#LiberationSans-121"/>
       <use x="478.076172" xlink:href="#LiberationSans-95"/>
       <use x="533.691406" xlink:href="#LiberationSans-116"/>
       <use x="561.474609" xlink:href="#LiberationSans-121"/>
       <use x="611.474609" xlink:href="#LiberationSans-112"/>
       <use x="667.089844" xlink:href="#LiberationSans-101"/>
       <use x="722.705078" xlink:href="#LiberationSans-95"/>
       <use x="778.320312" xlink:href="#LiberationSans-49"/>
      </g>
     </g>
    </g>
    <g id="ytick_3">
     <g id="line2d_12">
      <g>
       <use style="fill:#262626;stroke:#262626;stroke-width:1.875;" x="320.401094" xlink:href="#m638534d071" y="358.202654"/>
      </g>
     </g>
     <g id="text_13">
      <!-- debt_to_income_ratio -->
      <g style="fill:#262626;" transform="translate(145.722656 364.181325)scale(0.165 -0.165)">
       <defs>
        <path d="M 40.09375 8.5 
Q 37.640625 3.421875 33.609375 1.21875 
Q 29.59375 -0.984375 23.640625 -0.984375 
Q 13.625 -0.984375 8.90625 5.75 
Q 4.203125 12.5 4.203125 26.171875 
Q 4.203125 53.8125 23.640625 53.8125 
Q 29.640625 53.8125 33.640625 51.609375 
Q 37.640625 49.421875 40.09375 44.625 
L 40.1875 44.625 
Q 40.1875 45.125 40.15625 46.171875 
Q 40.140625 47.21875 40.109375 48.359375 
Q 40.09375 49.515625 40.09375 50.53125 
Q 40.09375 51.5625 40.09375 52 
L 40.09375 72.46875 
L 48.875 72.46875 
L 48.875 10.890625 
Q 48.875 8.984375 48.890625 7.21875 
Q 48.921875 5.46875 48.96875 4 
Q 49.03125 2.546875 49.078125 1.484375 
Q 49.125 0.4375 49.171875 0 
L 40.765625 0 
Q 40.671875 0.484375 40.59375 1.390625 
Q 40.53125 2.296875 40.453125 3.46875 
Q 40.375 4.640625 40.328125 5.9375 
Q 40.28125 7.234375 40.28125 8.5 
z
M 13.421875 26.46875 
Q 13.421875 21 14.109375 17.09375 
Q 14.796875 13.1875 16.3125 10.671875 
Q 17.828125 8.15625 20.171875 6.984375 
Q 22.515625 5.8125 25.875 5.8125 
Q 29.34375 5.8125 32 6.9375 
Q 34.671875 8.0625 36.453125 10.578125 
Q 38.234375 13.09375 39.15625 17.140625 
Q 40.09375 21.1875 40.09375 27.046875 
Q 40.09375 32.671875 39.15625 36.546875 
Q 38.234375 40.4375 36.421875 42.828125 
Q 34.625 45.21875 32 46.265625 
Q 29.390625 47.3125 25.984375 47.3125 
Q 22.75 47.3125 20.40625 46.1875 
Q 18.0625 45.0625 16.5 42.578125 
Q 14.9375 40.09375 14.171875 36.109375 
Q 13.421875 32.125 13.421875 26.46875 
z
" id="LiberationSans-100"/>
        <path d="M 51.421875 26.65625 
Q 51.421875 -0.984375 31.984375 -0.984375 
Q 25.984375 -0.984375 22 1.1875 
Q 18.015625 3.375 15.53125 8.203125 
L 15.4375 8.203125 
Q 15.4375 6.9375 15.359375 5.5625 
Q 15.28125 4.203125 15.203125 3.03125 
Q 15.140625 1.859375 15.0625 1.03125 
Q 14.984375 0.203125 14.9375 0 
L 6.453125 0 
Q 6.5 0.4375 6.546875 1.484375 
Q 6.59375 2.546875 6.640625 4 
Q 6.6875 5.46875 6.703125 7.21875 
Q 6.734375 8.984375 6.734375 10.890625 
L 6.734375 72.46875 
L 15.53125 72.46875 
L 15.53125 51.8125 
Q 15.53125 50.34375 15.5 49 
Q 15.484375 47.65625 15.4375 46.625 
Q 15.375 45.40625 15.328125 44.34375 
L 15.53125 44.34375 
Q 17.96875 49.421875 22 51.609375 
Q 26.03125 53.8125 31.984375 53.8125 
Q 42 53.8125 46.703125 47.0625 
Q 51.421875 40.328125 51.421875 26.65625 
z
M 42.1875 26.375 
Q 42.1875 31.84375 41.5 35.75 
Q 40.828125 39.65625 39.3125 42.15625 
Q 37.796875 44.671875 35.453125 45.84375 
Q 33.109375 47.015625 29.734375 47.015625 
Q 26.265625 47.015625 23.609375 45.890625 
Q 20.953125 44.78125 19.171875 42.28125 
Q 17.390625 39.796875 16.453125 35.734375 
Q 15.53125 31.6875 15.53125 25.828125 
Q 15.53125 20.171875 16.453125 16.3125 
Q 17.390625 12.453125 19.171875 10.03125 
Q 20.953125 7.625 23.578125 6.5625 
Q 26.21875 5.515625 29.640625 5.515625 
Q 32.859375 5.515625 35.203125 6.640625 
Q 37.546875 7.765625 39.109375 10.25 
Q 40.671875 12.75 41.421875 16.71875 
Q 42.1875 20.703125 42.1875 26.375 
z
" id="LiberationSans-98"/>
       </defs>
       <use xlink:href="#LiberationSans-100"/>
       <use x="55.615234" xlink:href="#LiberationSans-101"/>
       <use x="111.230469" xlink:href="#LiberationSans-98"/>
       <use x="166.845703" xlink:href="#LiberationSans-116"/>
       <use x="194.628906" xlink:href="#LiberationSans-95"/>
       <use x="250.244141" xlink:href="#LiberationSans-116"/>
       <use x="278.027344" xlink:href="#LiberationSans-111"/>
       <use x="333.642578" xlink:href="#LiberationSans-95"/>
       <use x="389.257812" xlink:href="#LiberationSans-105"/>
       <use x="411.474609" xlink:href="#LiberationSans-110"/>
       <use x="467.089844" xlink:href="#LiberationSans-99"/>
       <use x="517.089844" xlink:href="#LiberationSans-111"/>
       <use x="572.705078" xlink:href="#LiberationSans-109"/>
       <use x="656.005859" xlink:href="#LiberationSans-101"/>
       <use x="711.621094" xlink:href="#LiberationSans-95"/>
       <use x="767.236328" xlink:href="#LiberationSans-114"/>
       <use x="800.537109" xlink:href="#LiberationSans-97"/>
       <use x="856.152344" xlink:href="#LiberationSans-116"/>
       <use x="883.935547" xlink:href="#LiberationSans-105"/>
       <use x="906.152344" xlink:href="#LiberationSans-111"/>
      </g>
     </g>
    </g>
    <g id="ytick_4">
     <g id="line2d_13">
      <g>
       <use style="fill:#262626;stroke:#262626;stroke-width:1.875;" x="320.401094" xlink:href="#m638534d071" y="331.490123"/>
      </g>
     </g>
     <g id="text_14">
      <!-- business_or_commercial_purpose_2 -->
      <g style="fill:#262626;" transform="translate(34.773047 337.468795)scale(0.165 -0.165)">
       <use xlink:href="#LiberationSans-98"/>
       <use x="55.615234" xlink:href="#LiberationSans-117"/>
       <use x="111.230469" xlink:href="#LiberationSans-115"/>
       <use x="161.230469" xlink:href="#LiberationSans-105"/>
       <use x="183.447266" xlink:href="#LiberationSans-110"/>
       <use x="239.0625" xlink:href="#LiberationSans-101"/>
       <use x="294.677734" xlink:href="#LiberationSans-115"/>
       <use x="344.677734" xlink:href="#LiberationSans-115"/>
       <use x="394.677734" xlink:href="#LiberationSans-95"/>
       <use x="450.292969" xlink:href="#LiberationSans-111"/>
       <use x="505.908203" xlink:href="#LiberationSans-114"/>
       <use x="539.208984" xlink:href="#LiberationSans-95"/>
       <use x="594.824219" xlink:href="#LiberationSans-99"/>
       <use x="644.824219" xlink:href="#LiberationSans-111"/>
       <use x="700.439453" xlink:href="#LiberationSans-109"/>
       <use x="783.740234" xlink:href="#LiberationSans-109"/>
       <use x="867.041016" xlink:href="#LiberationSans-101"/>
       <use x="922.65625" xlink:href="#LiberationSans-114"/>
       <use x="955.957031" xlink:href="#LiberationSans-99"/>
       <use x="1005.957031" xlink:href="#LiberationSans-105"/>
       <use x="1028.173828" xlink:href="#LiberationSans-97"/>
       <use x="1083.789062" xlink:href="#LiberationSans-108"/>
       <use x="1106.005859" xlink:href="#LiberationSans-95"/>
       <use x="1161.621094" xlink:href="#LiberationSans-112"/>
       <use x="1217.236328" xlink:href="#LiberationSans-117"/>
       <use x="1272.851562" xlink:href="#LiberationSans-114"/>
       <use x="1306.152344" xlink:href="#LiberationSans-112"/>
       <use x="1361.767578" xlink:href="#LiberationSans-111"/>
       <use x="1417.382812" xlink:href="#LiberationSans-115"/>
       <use x="1467.382812" xlink:href="#LiberationSans-101"/>
       <use x="1522.998047" xlink:href="#LiberationSans-95"/>
       <use x="1578.613281" xlink:href="#LiberationSans-50"/>
      </g>
     </g>
    </g>
    <g id="ytick_5">
     <g id="line2d_14">
      <g>
       <use style="fill:#262626;stroke:#262626;stroke-width:1.875;" x="320.401094" xlink:href="#m638534d071" y="304.777592"/>
      </g>
     </g>
     <g id="text_15">
      <!-- open_end_line_of_credit_1 -->
      <g style="fill:#262626;" transform="translate(105.331172 310.756264)scale(0.165 -0.165)">
       <defs>
        <path d="M 17.625 46.4375 
L 17.625 0 
L 8.84375 0 
L 8.84375 46.4375 
L 1.421875 46.4375 
L 1.421875 52.828125 
L 8.84375 52.828125 
L 8.84375 58.796875 
Q 8.84375 61.671875 9.375 64.140625 
Q 9.90625 66.609375 11.34375 68.4375 
Q 12.796875 70.265625 15.28125 71.3125 
Q 17.78125 72.359375 21.734375 72.359375 
Q 23.296875 72.359375 24.96875 72.21875 
Q 26.65625 72.078125 27.9375 71.78125 
L 27.9375 65.09375 
Q 27.09375 65.234375 26 65.359375 
Q 24.90625 65.484375 24.03125 65.484375 
Q 22.078125 65.484375 20.828125 64.9375 
Q 19.578125 64.40625 18.875 63.40625 
Q 18.171875 62.40625 17.890625 60.9375 
Q 17.625 59.46875 17.625 57.5625 
L 17.625 52.828125 
L 27.9375 52.828125 
L 27.9375 46.4375 
z
" id="LiberationSans-102"/>
       </defs>
       <use xlink:href="#LiberationSans-111"/>
       <use x="55.615234" xlink:href="#LiberationSans-112"/>
       <use x="111.230469" xlink:href="#LiberationSans-101"/>
       <use x="166.845703" xlink:href="#LiberationSans-110"/>
       <use x="222.460938" xlink:href="#LiberationSans-95"/>
       <use x="278.076172" xlink:href="#LiberationSans-101"/>
       <use x="333.691406" xlink:href="#LiberationSans-110"/>
       <use x="389.306641" xlink:href="#LiberationSans-100"/>
       <use x="444.921875" xlink:href="#LiberationSans-95"/>
       <use x="500.537109" xlink:href="#LiberationSans-108"/>
       <use x="522.753906" xlink:href="#LiberationSans-105"/>
       <use x="544.970703" xlink:href="#LiberationSans-110"/>
       <use x="600.585938" xlink:href="#LiberationSans-101"/>
       <use x="656.201172" xlink:href="#LiberationSans-95"/>
       <use x="711.816406" xlink:href="#LiberationSans-111"/>
       <use x="767.431641" xlink:href="#LiberationSans-102"/>
       <use x="795.214844" xlink:href="#LiberationSans-95"/>
       <use x="850.830078" xlink:href="#LiberationSans-99"/>
       <use x="900.830078" xlink:href="#LiberationSans-114"/>
       <use x="934.130859" xlink:href="#LiberationSans-101"/>
       <use x="989.746094" xlink:href="#LiberationSans-100"/>
       <use x="1045.361328" xlink:href="#LiberationSans-105"/>
       <use x="1067.578125" xlink:href="#LiberationSans-116"/>
       <use x="1095.361328" xlink:href="#LiberationSans-95"/>
       <use x="1150.976562" xlink:href="#LiberationSans-49"/>
      </g>
     </g>
    </g>
    <g id="ytick_6">
     <g id="line2d_15">
      <g>
       <use style="fill:#262626;stroke:#262626;stroke-width:1.875;" x="320.401094" xlink:href="#m638534d071" y="278.065061"/>
      </g>
     </g>
     <g id="text_16">
      <!-- derived_loan_product_type_Subordinate -->
      <g style="fill:#262626;" transform="translate(7.2 284.043733)scale(0.165 -0.165)">
       <defs>
        <path d="M 62.109375 19 
Q 62.109375 14.65625 60.421875 10.984375 
Q 58.734375 7.328125 55.21875 4.65625 
Q 51.703125 2 46.359375 0.5 
Q 41.015625 -0.984375 33.6875 -0.984375 
Q 20.84375 -0.984375 13.671875 3.515625 
Q 6.5 8.015625 4.546875 16.5 
L 13.578125 18.3125 
Q 14.265625 15.625 15.671875 13.421875 
Q 17.09375 11.234375 19.5 9.640625 
Q 21.921875 8.0625 25.484375 7.171875 
Q 29.046875 6.296875 34.03125 6.296875 
Q 38.1875 6.296875 41.65625 7 
Q 45.125 7.71875 47.609375 9.171875 
Q 50.09375 10.640625 51.484375 12.953125 
Q 52.875 15.28125 52.875 18.5 
Q 52.875 21.875 51.34375 23.96875 
Q 49.8125 26.078125 47.015625 27.4375 
Q 44.234375 28.8125 40.375 29.734375 
Q 36.53125 30.671875 31.84375 31.734375 
Q 28.953125 32.375 26.046875 33.125 
Q 23.140625 33.890625 20.484375 34.9375 
Q 17.828125 35.984375 15.484375 37.390625 
Q 13.140625 38.8125 11.421875 40.796875 
Q 9.71875 42.78125 8.734375 45.390625 
Q 7.765625 48 7.765625 51.421875 
Q 7.765625 56.296875 9.734375 59.78125 
Q 11.71875 63.28125 15.234375 65.53125 
Q 18.75 67.78125 23.53125 68.796875 
Q 28.328125 69.828125 33.890625 69.828125 
Q 40.28125 69.828125 44.8125 68.828125 
Q 49.359375 67.828125 52.484375 65.8125 
Q 55.609375 63.8125 57.484375 60.859375 
Q 59.375 57.90625 60.5 54 
L 51.3125 52.390625 
Q 50.640625 54.890625 49.34375 56.84375 
Q 48.046875 58.796875 45.9375 60.109375 
Q 43.84375 61.421875 40.84375 62.109375 
Q 37.84375 62.796875 33.796875 62.796875 
Q 29 62.796875 25.75 61.9375 
Q 22.515625 61.078125 20.53125 59.609375 
Q 18.5625 58.15625 17.703125 56.171875 
Q 16.84375 54.203125 16.84375 51.90625 
Q 16.84375 48.828125 18.375 46.84375 
Q 19.921875 44.875 22.5625 43.546875 
Q 25.203125 42.234375 28.65625 41.359375 
Q 32.125 40.484375 36.03125 39.59375 
Q 39.203125 38.875 42.359375 38.109375 
Q 45.515625 37.359375 48.390625 36.296875 
Q 51.265625 35.25 53.78125 33.828125 
Q 56.296875 32.421875 58.15625 30.375 
Q 60.015625 28.328125 61.0625 25.53125 
Q 62.109375 22.75 62.109375 19 
z
" id="LiberationSans-83"/>
       </defs>
       <use xlink:href="#LiberationSans-100"/>
       <use x="55.615234" xlink:href="#LiberationSans-101"/>
       <use x="111.230469" xlink:href="#LiberationSans-114"/>
       <use x="144.53125" xlink:href="#LiberationSans-105"/>
       <use x="166.748047" xlink:href="#LiberationSans-118"/>
       <use x="216.748047" xlink:href="#LiberationSans-101"/>
       <use x="272.363281" xlink:href="#LiberationSans-100"/>
       <use x="327.978516" xlink:href="#LiberationSans-95"/>
       <use x="383.59375" xlink:href="#LiberationSans-108"/>
       <use x="405.810547" xlink:href="#LiberationSans-111"/>
       <use x="461.425781" xlink:href="#LiberationSans-97"/>
       <use x="517.041016" xlink:href="#LiberationSans-110"/>
       <use x="572.65625" xlink:href="#LiberationSans-95"/>
       <use x="628.271484" xlink:href="#LiberationSans-112"/>
       <use x="683.886719" xlink:href="#LiberationSans-114"/>
       <use x="717.1875" xlink:href="#LiberationSans-111"/>
       <use x="772.802734" xlink:href="#LiberationSans-100"/>
       <use x="828.417969" xlink:href="#LiberationSans-117"/>
       <use x="884.033203" xlink:href="#LiberationSans-99"/>
       <use x="934.033203" xlink:href="#LiberationSans-116"/>
       <use x="961.816406" xlink:href="#LiberationSans-95"/>
       <use x="1017.431641" xlink:href="#LiberationSans-116"/>
       <use x="1045.214844" xlink:href="#LiberationSans-121"/>
       <use x="1095.214844" xlink:href="#LiberationSans-112"/>
       <use x="1150.830078" xlink:href="#LiberationSans-101"/>
       <use x="1206.445312" xlink:href="#LiberationSans-95"/>
       <use x="1262.060547" xlink:href="#LiberationSans-83"/>
       <use x="1328.759766" xlink:href="#LiberationSans-117"/>
       <use x="1384.375" xlink:href="#LiberationSans-98"/>
       <use x="1439.990234" xlink:href="#LiberationSans-111"/>
       <use x="1495.605469" xlink:href="#LiberationSans-114"/>
       <use x="1528.90625" xlink:href="#LiberationSans-100"/>
       <use x="1584.521484" xlink:href="#LiberationSans-105"/>
       <use x="1606.738281" xlink:href="#LiberationSans-110"/>
       <use x="1662.353516" xlink:href="#LiberationSans-97"/>
       <use x="1717.96875" xlink:href="#LiberationSans-116"/>
       <use x="1745.751953" xlink:href="#LiberationSans-101"/>
      </g>
     </g>
    </g>
    <g id="ytick_7">
     <g id="line2d_16">
      <g>
       <use style="fill:#262626;stroke:#262626;stroke-width:1.875;" x="320.401094" xlink:href="#m638534d071" y="251.352531"/>
      </g>
     </g>
     <g id="text_17">
      <!-- lien_status_2 -->
      <g style="fill:#262626;" transform="translate(207.172266 257.331203)scale(0.165 -0.165)">
       <use xlink:href="#LiberationSans-108"/>
       <use x="22.216797" xlink:href="#LiberationSans-105"/>
       <use x="44.433594" xlink:href="#LiberationSans-101"/>
       <use x="100.048828" xlink:href="#LiberationSans-110"/>
       <use x="155.664062" xlink:href="#LiberationSans-95"/>
       <use x="211.279297" xlink:href="#LiberationSans-115"/>
       <use x="261.279297" xlink:href="#LiberationSans-116"/>
       <use x="289.0625" xlink:href="#LiberationSans-97"/>
       <use x="344.677734" xlink:href="#LiberationSans-116"/>
       <use x="372.460938" xlink:href="#LiberationSans-117"/>
       <use x="428.076172" xlink:href="#LiberationSans-115"/>
       <use x="478.076172" xlink:href="#LiberationSans-95"/>
       <use x="533.691406" xlink:href="#LiberationSans-50"/>
      </g>
     </g>
    </g>
    <g id="ytick_8">
     <g id="line2d_17">
      <g>
       <use style="fill:#262626;stroke:#262626;stroke-width:1.875;" x="320.401094" xlink:href="#m638534d071" y="224.64"/>
      </g>
     </g>
     <g id="text_18">
      <!-- hoepa_status_1 -->
      <g style="fill:#262626;" transform="translate(186.977813 230.618672)scale(0.165 -0.165)">
       <use xlink:href="#LiberationSans-104"/>
       <use x="55.615234" xlink:href="#LiberationSans-111"/>
       <use x="111.230469" xlink:href="#LiberationSans-101"/>
       <use x="166.845703" xlink:href="#LiberationSans-112"/>
       <use x="222.460938" xlink:href="#LiberationSans-97"/>
       <use x="278.076172" xlink:href="#LiberationSans-95"/>
       <use x="333.691406" xlink:href="#LiberationSans-115"/>
       <use x="383.691406" xlink:href="#LiberationSans-116"/>
       <use x="411.474609" xlink:href="#LiberationSans-97"/>
       <use x="467.089844" xlink:href="#LiberationSans-116"/>
       <use x="494.873047" xlink:href="#LiberationSans-117"/>
       <use x="550.488281" xlink:href="#LiberationSans-115"/>
       <use x="600.488281" xlink:href="#LiberationSans-95"/>
       <use x="656.103516" xlink:href="#LiberationSans-49"/>
      </g>
     </g>
    </g>
    <g id="ytick_9">
     <g id="line2d_18">
      <g>
       <use style="fill:#262626;stroke:#262626;stroke-width:1.875;" x="320.401094" xlink:href="#m638534d071" y="197.927469"/>
      </g>
     </g>
     <g id="text_19">
      <!-- lien_status_1 -->
      <g style="fill:#262626;" transform="translate(207.172266 203.906141)scale(0.165 -0.165)">
       <use xlink:href="#LiberationSans-108"/>
       <use x="22.216797" xlink:href="#LiberationSans-105"/>
       <use x="44.433594" xlink:href="#LiberationSans-101"/>
       <use x="100.048828" xlink:href="#LiberationSans-110"/>
       <use x="155.664062" xlink:href="#LiberationSans-95"/>
       <use x="211.279297" xlink:href="#LiberationSans-115"/>
       <use x="261.279297" xlink:href="#LiberationSans-116"/>
       <use x="289.0625" xlink:href="#LiberationSans-97"/>
       <use x="344.677734" xlink:href="#LiberationSans-116"/>
       <use x="372.460938" xlink:href="#LiberationSans-117"/>
       <use x="428.076172" xlink:href="#LiberationSans-115"/>
       <use x="478.076172" xlink:href="#LiberationSans-95"/>
       <use x="533.691406" xlink:href="#LiberationSans-49"/>
      </g>
     </g>
    </g>
    <g id="ytick_10">
     <g id="line2d_19">
      <g>
       <use style="fill:#262626;stroke:#262626;stroke-width:1.875;" x="320.401094" xlink:href="#m638534d071" y="171.214939"/>
      </g>
     </g>
     <g id="text_20">
      <!-- derived_loan_product_type_First -->
      <g style="fill:#262626;" transform="translate(64.106953 177.19361)scale(0.165 -0.165)">
       <use xlink:href="#LiberationSans-100"/>
       <use x="55.615234" xlink:href="#LiberationSans-101"/>
       <use x="111.230469" xlink:href="#LiberationSans-114"/>
       <use x="144.53125" xlink:href="#LiberationSans-105"/>
       <use x="166.748047" xlink:href="#LiberationSans-118"/>
       <use x="216.748047" xlink:href="#LiberationSans-101"/>
       <use x="272.363281" xlink:href="#LiberationSans-100"/>
       <use x="327.978516" xlink:href="#LiberationSans-95"/>
       <use x="383.59375" xlink:href="#LiberationSans-108"/>
       <use x="405.810547" xlink:href="#LiberationSans-111"/>
       <use x="461.425781" xlink:href="#LiberationSans-97"/>
       <use x="517.041016" xlink:href="#LiberationSans-110"/>
       <use x="572.65625" xlink:href="#LiberationSans-95"/>
       <use x="628.271484" xlink:href="#LiberationSans-112"/>
       <use x="683.886719" xlink:href="#LiberationSans-114"/>
       <use x="717.1875" xlink:href="#LiberationSans-111"/>
       <use x="772.802734" xlink:href="#LiberationSans-100"/>
       <use x="828.417969" xlink:href="#LiberationSans-117"/>
       <use x="884.033203" xlink:href="#LiberationSans-99"/>
       <use x="934.033203" xlink:href="#LiberationSans-116"/>
       <use x="961.816406" xlink:href="#LiberationSans-95"/>
       <use x="1017.431641" xlink:href="#LiberationSans-116"/>
       <use x="1045.214844" xlink:href="#LiberationSans-121"/>
       <use x="1095.214844" xlink:href="#LiberationSans-112"/>
       <use x="1150.830078" xlink:href="#LiberationSans-101"/>
       <use x="1206.445312" xlink:href="#LiberationSans-95"/>
       <use x="1262.060547" xlink:href="#LiberationSans-70"/>
       <use x="1323.144531" xlink:href="#LiberationSans-105"/>
       <use x="1345.361328" xlink:href="#LiberationSans-114"/>
       <use x="1378.662109" xlink:href="#LiberationSans-115"/>
       <use x="1428.662109" xlink:href="#LiberationSans-116"/>
      </g>
     </g>
    </g>
    <g id="ytick_11">
     <g id="line2d_20">
      <g>
       <use style="fill:#262626;stroke:#262626;stroke-width:1.875;" x="320.401094" xlink:href="#m638534d071" y="144.502408"/>
      </g>
     </g>
     <g id="text_21">
      <!-- open_end_line_of_credit_2 -->
      <g style="fill:#262626;" transform="translate(105.331172 150.48108)scale(0.165 -0.165)">
       <use xlink:href="#LiberationSans-111"/>
       <use x="55.615234" xlink:href="#LiberationSans-112"/>
       <use x="111.230469" xlink:href="#LiberationSans-101"/>
       <use x="166.845703" xlink:href="#LiberationSans-110"/>
       <use x="222.460938" xlink:href="#LiberationSans-95"/>
       <use x="278.076172" xlink:href="#LiberationSans-101"/>
       <use x="333.691406" xlink:href="#LiberationSans-110"/>
       <use x="389.306641" xlink:href="#LiberationSans-100"/>
       <use x="444.921875" xlink:href="#LiberationSans-95"/>
       <use x="500.537109" xlink:href="#LiberationSans-108"/>
       <use x="522.753906" xlink:href="#LiberationSans-105"/>
       <use x="544.970703" xlink:href="#LiberationSans-110"/>
       <use x="600.585938" xlink:href="#LiberationSans-101"/>
       <use x="656.201172" xlink:href="#LiberationSans-95"/>
       <use x="711.816406" xlink:href="#LiberationSans-111"/>
       <use x="767.431641" xlink:href="#LiberationSans-102"/>
       <use x="795.214844" xlink:href="#LiberationSans-95"/>
       <use x="850.830078" xlink:href="#LiberationSans-99"/>
       <use x="900.830078" xlink:href="#LiberationSans-114"/>
       <use x="934.130859" xlink:href="#LiberationSans-101"/>
       <use x="989.746094" xlink:href="#LiberationSans-100"/>
       <use x="1045.361328" xlink:href="#LiberationSans-105"/>
       <use x="1067.578125" xlink:href="#LiberationSans-116"/>
       <use x="1095.361328" xlink:href="#LiberationSans-95"/>
       <use x="1150.976562" xlink:href="#LiberationSans-50"/>
      </g>
     </g>
    </g>
    <g id="ytick_12">
     <g id="line2d_21">
      <g>
       <use style="fill:#262626;stroke:#262626;stroke-width:1.875;" x="320.401094" xlink:href="#m638534d071" y="117.789877"/>
      </g>
     </g>
     <g id="text_22">
      <!-- occupancy_type_3 -->
      <g style="fill:#262626;" transform="translate(166.811719 123.768549)scale(0.165 -0.165)">
       <use xlink:href="#LiberationSans-111"/>
       <use x="55.615234" xlink:href="#LiberationSans-99"/>
       <use x="105.615234" xlink:href="#LiberationSans-99"/>
       <use x="155.615234" xlink:href="#LiberationSans-117"/>
       <use x="211.230469" xlink:href="#LiberationSans-112"/>
       <use x="266.845703" xlink:href="#LiberationSans-97"/>
       <use x="322.460938" xlink:href="#LiberationSans-110"/>
       <use x="378.076172" xlink:href="#LiberationSans-99"/>
       <use x="428.076172" xlink:href="#LiberationSans-121"/>
       <use x="478.076172" xlink:href="#LiberationSans-95"/>
       <use x="533.691406" xlink:href="#LiberationSans-116"/>
       <use x="561.474609" xlink:href="#LiberationSans-121"/>
       <use x="611.474609" xlink:href="#LiberationSans-112"/>
       <use x="667.089844" xlink:href="#LiberationSans-101"/>
       <use x="722.705078" xlink:href="#LiberationSans-95"/>
       <use x="778.320312" xlink:href="#LiberationSans-51"/>
      </g>
     </g>
    </g>
    <g id="ytick_13">
     <g id="line2d_22">
      <g>
       <use style="fill:#262626;stroke:#262626;stroke-width:1.875;" x="320.401094" xlink:href="#m638534d071" y="91.077346"/>
      </g>
     </g>
     <g id="text_23">
      <!-- business_or_commercial_purpose_1 -->
      <g style="fill:#262626;" transform="translate(34.773047 97.056018)scale(0.165 -0.165)">
       <use xlink:href="#LiberationSans-98"/>
       <use x="55.615234" xlink:href="#LiberationSans-117"/>
       <use x="111.230469" xlink:href="#LiberationSans-115"/>
       <use x="161.230469" xlink:href="#LiberationSans-105"/>
       <use x="183.447266" xlink:href="#LiberationSans-110"/>
       <use x="239.0625" xlink:href="#LiberationSans-101"/>
       <use x="294.677734" xlink:href="#LiberationSans-115"/>
       <use x="344.677734" xlink:href="#LiberationSans-115"/>
       <use x="394.677734" xlink:href="#LiberationSans-95"/>
       <use x="450.292969" xlink:href="#LiberationSans-111"/>
       <use x="505.908203" xlink:href="#LiberationSans-114"/>
       <use x="539.208984" xlink:href="#LiberationSans-95"/>
       <use x="594.824219" xlink:href="#LiberationSans-99"/>
       <use x="644.824219" xlink:href="#LiberationSans-111"/>
       <use x="700.439453" xlink:href="#LiberationSans-109"/>
       <use x="783.740234" xlink:href="#LiberationSans-109"/>
       <use x="867.041016" xlink:href="#LiberationSans-101"/>
       <use x="922.65625" xlink:href="#LiberationSans-114"/>
       <use x="955.957031" xlink:href="#LiberationSans-99"/>
       <use x="1005.957031" xlink:href="#LiberationSans-105"/>
       <use x="1028.173828" xlink:href="#LiberationSans-97"/>
       <use x="1083.789062" xlink:href="#LiberationSans-108"/>
       <use x="1106.005859" xlink:href="#LiberationSans-95"/>
       <use x="1161.621094" xlink:href="#LiberationSans-112"/>
       <use x="1217.236328" xlink:href="#LiberationSans-117"/>
       <use x="1272.851562" xlink:href="#LiberationSans-114"/>
       <use x="1306.152344" xlink:href="#LiberationSans-112"/>
       <use x="1361.767578" xlink:href="#LiberationSans-111"/>
       <use x="1417.382812" xlink:href="#LiberationSans-115"/>
       <use x="1467.382812" xlink:href="#LiberationSans-101"/>
       <use x="1522.998047" xlink:href="#LiberationSans-95"/>
       <use x="1578.613281" xlink:href="#LiberationSans-49"/>
      </g>
     </g>
    </g>
    <g id="ytick_14">
     <g id="line2d_23">
      <g>
       <use style="fill:#262626;stroke:#262626;stroke-width:1.875;" x="320.401094" xlink:href="#m638534d071" y="64.364816"/>
      </g>
     </g>
     <g id="text_24">
      <!-- occupancy_type_2 -->
      <g style="fill:#262626;" transform="translate(166.811719 70.343488)scale(0.165 -0.165)">
       <use xlink:href="#LiberationSans-111"/>
       <use x="55.615234" xlink:href="#LiberationSans-99"/>
       <use x="105.615234" xlink:href="#LiberationSans-99"/>
       <use x="155.615234" xlink:href="#LiberationSans-117"/>
       <use x="211.230469" xlink:href="#LiberationSans-112"/>
       <use x="266.845703" xlink:href="#LiberationSans-97"/>
       <use x="322.460938" xlink:href="#LiberationSans-110"/>
       <use x="378.076172" xlink:href="#LiberationSans-99"/>
       <use x="428.076172" xlink:href="#LiberationSans-121"/>
       <use x="478.076172" xlink:href="#LiberationSans-95"/>
       <use x="533.691406" xlink:href="#LiberationSans-116"/>
       <use x="561.474609" xlink:href="#LiberationSans-121"/>
       <use x="611.474609" xlink:href="#LiberationSans-112"/>
       <use x="667.089844" xlink:href="#LiberationSans-101"/>
       <use x="722.705078" xlink:href="#LiberationSans-95"/>
       <use x="778.320312" xlink:href="#LiberationSans-50"/>
      </g>
     </g>
    </g>
    <g id="ytick_15">
     <g id="line2d_24">
      <g>
       <use style="fill:#262626;stroke:#262626;stroke-width:1.875;" x="320.401094" xlink:href="#m638534d071" y="37.652285"/>
      </g>
     </g>
     <g id="text_25">
      <!-- hoepa_status_2 -->
      <g style="fill:#262626;" transform="translate(186.977813 43.630957)scale(0.165 -0.165)">
       <use xlink:href="#LiberationSans-104"/>
       <use x="55.615234" xlink:href="#LiberationSans-111"/>
       <use x="111.230469" xlink:href="#LiberationSans-101"/>
       <use x="166.845703" xlink:href="#LiberationSans-112"/>
       <use x="222.460938" xlink:href="#LiberationSans-97"/>
       <use x="278.076172" xlink:href="#LiberationSans-95"/>
       <use x="333.691406" xlink:href="#LiberationSans-115"/>
       <use x="383.691406" xlink:href="#LiberationSans-116"/>
       <use x="411.474609" xlink:href="#LiberationSans-97"/>
       <use x="467.089844" xlink:href="#LiberationSans-116"/>
       <use x="494.873047" xlink:href="#LiberationSans-117"/>
       <use x="550.488281" xlink:href="#LiberationSans-115"/>
       <use x="600.488281" xlink:href="#LiberationSans-95"/>
       <use x="656.103516" xlink:href="#LiberationSans-50"/>
      </g>
     </g>
    </g>
   </g>
   <g id="patch_3">
    <path clip-path="url(#p0dc07839f3)" d="M 543.883021 422.312727 
L 340.692003 422.312727 
L 340.692003 395.600197 
L 543.883021 395.600197 
z
" style="fill:#0272a2;stroke:#000000;stroke-linejoin:miter;"/>
   </g>
   <g id="patch_4">
    <path clip-path="url(#p0dc07839f3)" d="M 543.883021 395.600197 
L 462.217057 395.600197 
L 462.217057 368.887666 
L 543.883021 368.887666 
z
" style="fill:#0272a2;stroke:#000000;stroke-linejoin:miter;"/>
   </g>
   <g id="patch_5">
    <path clip-path="url(#p0dc07839f3)" d="M 543.883021 368.887666 
L 499.570337 368.887666 
L 499.570337 342.175135 
L 543.883021 342.175135 
z
" style="fill:#0272a2;stroke:#000000;stroke-linejoin:miter;"/>
   </g>
   <g id="patch_6">
    <path clip-path="url(#p0dc07839f3)" d="M 543.883021 342.175135 
L 516.840556 342.175135 
L 516.840556 315.462604 
L 543.883021 315.462604 
z
" style="fill:#0272a2;stroke:#000000;stroke-linejoin:miter;"/>
   </g>
   <g id="patch_7">
    <path clip-path="url(#p0dc07839f3)" d="M 543.883021 315.462604 
L 520.496292 315.462604 
L 520.496292 288.750074 
L 543.883021 288.750074 
z
" style="fill:#0272a2;stroke:#000000;stroke-linejoin:miter;"/>
   </g>
   <g id="patch_8">
    <path clip-path="url(#p0dc07839f3)" d="M 543.883021 288.750074 
L 542.057081 288.750074 
L 542.057081 262.037543 
L 543.883021 262.037543 
z
" style="fill:#0272a2;stroke:#000000;stroke-linejoin:miter;"/>
   </g>
   <g id="patch_9">
    <path clip-path="url(#p0dc07839f3)" d="M 543.883021 262.037543 
L 542.057081 262.037543 
L 542.057081 235.325012 
L 543.883021 235.325012 
z
" style="fill:#0272a2;stroke:#000000;stroke-linejoin:miter;"/>
   </g>
   <g id="patch_10">
    <path clip-path="url(#p0dc07839f3)" d="M 543.883021 235.325012 
L 544.446876 235.325012 
L 544.446876 208.612482 
L 543.883021 208.612482 
z
" style="fill:#ff9933;stroke:#000000;stroke-linejoin:miter;"/>
   </g>
   <g id="patch_11">
    <path clip-path="url(#p0dc07839f3)" d="M 543.883021 208.612482 
L 545.708961 208.612482 
L 545.708961 181.899951 
L 543.883021 181.899951 
z
" style="fill:#ff9933;stroke:#000000;stroke-linejoin:miter;"/>
   </g>
   <g id="patch_12">
    <path clip-path="url(#p0dc07839f3)" d="M 543.883021 181.899951 
L 545.708961 181.899951 
L 545.708961 155.18742 
L 543.883021 155.18742 
z
" style="fill:#ff9933;stroke:#000000;stroke-linejoin:miter;"/>
   </g>
   <g id="patch_13">
    <path clip-path="url(#p0dc07839f3)" d="M 543.883021 155.18742 
L 567.26975 155.18742 
L 567.26975 128.474889 
L 543.883021 128.474889 
z
" style="fill:#ff9933;stroke:#000000;stroke-linejoin:miter;"/>
   </g>
   <g id="patch_14">
    <path clip-path="url(#p0dc07839f3)" d="M 543.883021 128.474889 
L 569.275414 128.474889 
L 569.275414 101.762359 
L 543.883021 101.762359 
z
" style="fill:#ff9933;stroke:#000000;stroke-linejoin:miter;"/>
   </g>
   <g id="patch_15">
    <path clip-path="url(#p0dc07839f3)" d="M 543.883021 101.762359 
L 570.925486 101.762359 
L 570.925486 75.049828 
L 543.883021 75.049828 
z
" style="fill:#ff9933;stroke:#000000;stroke-linejoin:miter;"/>
   </g>
   <g id="patch_16">
    <path clip-path="url(#p0dc07839f3)" d="M 543.883021 75.049828 
L 600.156592 75.049828 
L 600.156592 48.337297 
L 543.883021 48.337297 
z
" style="fill:#ff9933;stroke:#000000;stroke-linejoin:miter;"/>
   </g>
   <g id="patch_17">
    <path clip-path="url(#p0dc07839f3)" d="M 543.883021 48.337297 
L 746.510185 48.337297 
L 746.510185 21.624767 
L 543.883021 21.624767 
z
" style="fill:#ff9933;stroke:#000000;stroke-linejoin:miter;"/>
   </g>
   <g id="patch_18">
    <path d="M 320.401094 442.08 
L 320.401094 7.2 
" style="fill:none;stroke:#cccccc;stroke-linecap:square;stroke-linejoin:miter;stroke-width:1.875;"/>
   </g>
   <g id="patch_19">
    <path d="M 766.801094 442.08 
L 766.801094 7.2 
" style="fill:none;stroke:#cccccc;stroke-linecap:square;stroke-linejoin:miter;stroke-width:1.875;"/>
   </g>
   <g id="patch_20">
    <path d="M 320.401094 442.08 
L 766.801094 442.08 
" style="fill:none;stroke:#cccccc;stroke-linecap:square;stroke-linejoin:miter;stroke-width:1.875;"/>
   </g>
   <g id="patch_21">
    <path d="M 320.401094 7.2 
L 766.801094 7.2 
" style="fill:none;stroke:#cccccc;stroke-linecap:square;stroke-linejoin:miter;stroke-width:1.875;"/>
   </g>
   <g id="legend_1">
    <g id="text_26">
     <!-- Action taken -->
     <g style="fill:#262626;" transform="translate(345.786836 36.744375)scale(0.18 -0.18)">
      <defs>
       <path d="M 56.984375 0 
L 49.125 20.125 
L 17.78125 20.125 
L 9.859375 0 
L 0.203125 0 
L 28.265625 68.796875 
L 38.875 68.796875 
L 66.5 0 
z
M 37.5 50.09375 
Q 36.71875 52.046875 36 54.046875 
Q 35.296875 56.0625 34.765625 57.6875 
Q 34.234375 59.328125 33.859375 60.421875 
Q 33.5 61.53125 33.453125 61.765625 
Q 33.34375 61.53125 33 60.40625 
Q 32.671875 59.28125 32.109375 57.609375 
Q 31.546875 55.953125 30.828125 53.953125 
Q 30.125 51.953125 29.390625 50 
L 20.609375 27.390625 
L 46.34375 27.390625 
z
" id="LiberationSans-65"/>
       <path d="M 39.84375 0 
L 21.96875 24.125 
L 15.53125 18.796875 
L 15.53125 0 
L 6.734375 0 
L 6.734375 72.46875 
L 15.53125 72.46875 
L 15.53125 27.203125 
L 38.71875 52.828125 
L 49.03125 52.828125 
L 27.59375 30.125 
L 50.140625 0 
z
" id="LiberationSans-107"/>
      </defs>
      <use xlink:href="#LiberationSans-65"/>
      <use x="66.699219" xlink:href="#LiberationSans-99"/>
      <use x="116.699219" xlink:href="#LiberationSans-116"/>
      <use x="144.482422" xlink:href="#LiberationSans-105"/>
      <use x="166.699219" xlink:href="#LiberationSans-111"/>
      <use x="222.314453" xlink:href="#LiberationSans-110"/>
      <use x="277.929688" xlink:href="#LiberationSans-32"/>
      <use x="305.712891" xlink:href="#LiberationSans-116"/>
      <use x="333.496094" xlink:href="#LiberationSans-97"/>
      <use x="389.111328" xlink:href="#LiberationSans-107"/>
      <use x="439.111328" xlink:href="#LiberationSans-101"/>
      <use x="494.726562" xlink:href="#LiberationSans-110"/>
     </g>
    </g>
    <g id="patch_22">
     <path d="M 336.901094 60.686719 
L 369.901094 60.686719 
L 369.901094 49.136719 
L 336.901094 49.136719 
z
" style="fill:#ff9933;stroke:#000000;stroke-linejoin:miter;"/>
    </g>
    <g id="text_27">
     <!-- Approved -->
     <g style="fill:#262626;" transform="translate(383.101094 60.686719)scale(0.165 -0.165)">
      <use xlink:href="#LiberationSans-65"/>
      <use x="66.699219" xlink:href="#LiberationSans-112"/>
      <use x="122.314453" xlink:href="#LiberationSans-112"/>
      <use x="177.929688" xlink:href="#LiberationSans-114"/>
      <use x="211.230469" xlink:href="#LiberationSans-111"/>
      <use x="266.845703" xlink:href="#LiberationSans-118"/>
      <use x="316.845703" xlink:href="#LiberationSans-101"/>
      <use x="372.460938" xlink:href="#LiberationSans-100"/>
     </g>
    </g>
    <g id="patch_23">
     <path d="M 336.901094 84.317812 
L 369.901094 84.317812 
L 369.901094 72.767812 
L 336.901094 72.767812 
z
" style="fill:#0272a2;stroke:#000000;stroke-linejoin:miter;"/>
    </g>
    <g id="text_28">
     <!-- Denied -->
     <g style="fill:#262626;" transform="translate(383.101094 84.317812)scale(0.165 -0.165)">
      <defs>
       <path d="M 67.4375 35.109375 
Q 67.4375 26.515625 64.84375 19.9375 
Q 62.25 13.375 57.75 8.953125 
Q 53.265625 4.546875 47.140625 2.265625 
Q 41.015625 0 33.9375 0 
L 8.203125 0 
L 8.203125 68.796875 
L 30.953125 68.796875 
Q 38.921875 68.796875 45.625 66.8125 
Q 52.34375 64.84375 57.171875 60.71875 
Q 62.015625 56.59375 64.71875 50.234375 
Q 67.4375 43.890625 67.4375 35.109375 
z
M 58.0625 35.109375 
Q 58.0625 42.09375 56.046875 47.046875 
Q 54.046875 52 50.4375 55.171875 
Q 46.828125 58.34375 41.796875 59.828125 
Q 36.765625 61.328125 30.765625 61.328125 
L 17.53125 61.328125 
L 17.53125 7.46875 
L 32.859375 7.46875 
Q 38.28125 7.46875 42.890625 9.21875 
Q 47.515625 10.984375 50.875 14.453125 
Q 54.25 17.921875 56.15625 23.09375 
Q 58.0625 28.265625 58.0625 35.109375 
z
" id="LiberationSans-68"/>
      </defs>
      <use xlink:href="#LiberationSans-68"/>
      <use x="72.216797" xlink:href="#LiberationSans-101"/>
      <use x="127.832031" xlink:href="#LiberationSans-110"/>
      <use x="183.447266" xlink:href="#LiberationSans-105"/>
      <use x="205.664062" xlink:href="#LiberationSans-101"/>
      <use x="261.279297" xlink:href="#LiberationSans-100"/>
     </g>
    </g>
   </g>
  </g>
 </g>
 <defs>
  <clipPath id="p0dc07839f3">
   <rect height="434.88" width="446.4" x="320.401094" y="7.2"/>
  </clipPath>
 </defs>
</svg>
